<svg width="4637" height="4637" xmlns="http://www.w3.org/2000/svg" data-name="Calque 6">

 <g>
  <title>Layer 1</title>
  <path id="svg_1" d="m1750.12,2889.64c23.95,26.48 90.99,53.66 93.5,54.74c41.98,18 85.68,28.42 131.22,32.74c117.78,11.16 225.38,-14.39 321.31,-85.43c70.19,-51.97 131,-113.14 183.12,-183.11c4.7,-6.3 9.71,-12.37 14.81,-18.84c25.53,9.69 49.55,19.02 71.26,33.17c19.82,12.92 37.65,28.15 50.97,48.11c10.63,15.93 13.87,32.44 4.79,50.21c-3.39,6.64 -6.44,13.45 -9.97,20.01c-27.1,50.26 -62.25,94.85 -98.07,138.97c-33.51,41.29 -73.14,76.01 -115.66,107.57c-24.19,17.96 -50.61,31.45 -80.11,38.47c-6.68,1.59 -13.27,3.66 -19.78,5.85c-58.85,19.83 -101.72,57.6 -123.75,115.94c-28.83,76.33 -32.13,154.38 -9.27,233.03c2.86,9.82 6.84,19.6 11.99,28.41c18.5,31.63 48.74,41.82 82.46,27.71c31.19,-13.05 55.26,-34.25 71.03,-64.64c15.55,-29.98 19.75,-61.99 18.11,-95.12c-0.6,-12.02 -1.52,-24.05 -2.89,-36c-3.81,-33.11 7.41,-59.77 33.88,-79.83c12.34,-9.35 24.97,-18.31 37.72,-27.09c60.94,-41.97 122.79,-82.68 182.76,-126c70.72,-51.09 127.45,-115.36 168.82,-192.48c23.07,-43 39.29,-88.51 35.12,-138.16c-6.39,-76 -40.08,-135.54 -109.7,-171.45c-22.05,-11.37 -45.42,-19.36 -69.92,-23.17c-18.56,-2.89 -37.35,-4.28 -57.98,-6.55c43.97,-86.39 73.57,-177.07 100.8,-268.18c5.6,0.62 9.67,0.61 13.5,1.56c35.6,8.82 70.9,19.08 106.8,26.41c40.39,8.24 81.15,15.28 122.06,20.24c35.23,4.27 70.89,5.22 106.38,7.06c61.91,3.2 123.8,3.23 185.44,-4.49c106.49,-13.33 203.72,-50.6 287.21,-118.57c108.4,-88.26 181.67,-202.47 234.7,-330.43c13.54,-32.68 18.1,-67.64 17.61,-102.88c-0.57,-40.75 -13.91,-78.13 -37.06,-111.1c-28.33,-40.35 -58.21,-79.65 -88.59,-118.49c-11.57,-14.79 -25.63,-27.9 -39.84,-40.29c-26.35,-22.99 -53.24,-45.42 -80.66,-67.13c-40.38,-31.97 -86.2,-54.42 -134.05,-72.63c-15.48,-5.89 -32.08,-8.59 -49.02,-6.78c-27.87,2.99 -41.37,23.81 -31.93,50.01c2.12,5.9 5.02,11.58 8.09,17.06c8.84,15.75 20.82,28.86 35.42,39.37c30.25,21.77 61.05,42.78 91.01,64.94c42.43,31.39 85.32,62.53 119.25,103.56c46.43,56.13 64.41,120.54 45.67,191.47c-20.05,75.86 -56.63,144.38 -109.14,202.71c-70.24,78.02 -157.22,128.91 -260.33,151.68c-53.5,11.82 -106.97,19.01 -161.98,13.39c-59.04,-6.03 -116.18,-20.52 -173.31,-35.43c-11.99,-3.13 -23.74,-7.13 -38.98,-11.75l-678.94,-468.12c-16.96,-10.73 -31.65,-21.88 -47.87,-29.99c-95.16,-47.62 -194.67,-80.95 -301.7,-87.7c-71.65,-4.52 -142.09,2.85 -210.31,25.97c-95.98,32.54 -187.68,74.01 -271.52,131.82c-36.74,25.34 -70.4,54.04 -94.86,91.42c-28.54,43.61 -56.4,87.87 -81.25,133.64c-27.79,51.17 -44.52,106.83 -54.6,164.21c-5.48,31.21 -7.35,62.65 0.13,94c5.74,24.08 18.52,43.06 39.78,55.89c22.7,13.7 46.88,9.31 62.21,-12.34c6.17,-8.71 11.17,-19.01 13.78,-29.32c4.62,-18.27 8.43,-36.99 10.04,-55.74c4.29,-49.89 18.71,-96.64 40.23,-141.5c13.65,-28.44 26.92,-57.02 48.17,-81.04c31.59,-35.73 65.18,-69.36 101.04,-100.84c94.17,-82.67 203.56,-128.85 328.3,-139.28c59.9,-5.01 119.1,-0.24 177.78,11.72c39.02,7.96 76.18,21.18 109.74,43.22c3.53,2.32 6.64,5.28 10.83,8.64c-3.91,2.31 -6.32,3.81 -8.8,5.18c-38.86,21.47 -74.43,47.47 -107.1,77.54c-18.57,17.1 -37.57,33.74 -56.21,50.76c-47.62,43.49 -91.21,90.51 -125.74,145.34c-49.8,79.07 -89.9,162.51 -112.96,253.47c-15.29,60.3 -24.31,121.43 -21.98,183.87c0.66,17.68 1.46,35.35 2.17,52.17c-14.65,5.55 -27.42,9.11 -39.01,15.01c-38.5,19.59 -73.84,43.77 -105.86,73.09c-52.29,47.86 -93.07,104.02 -125.85,166.63c-30.67,58.56 -55.39,119.53 -78.55,181.34c-25.11,66.99 -67.34,119.16 -134.47,149.05c-29.92,13.32 -57.68,30.82 -82.74,52.2c-19.42,16.57 -36,35.57 -46.15,59.23c-14.17,33.03 -1,61.54 33.52,71.27c14.22,4.01 29.26,6.39 44.03,6.94c39.97,1.49 79.12,-4.98 116.39,-19.22c52.33,-19.99 93.61,-55.19 126.99,-99.55c20.63,-27.41 25.67,-59.57 23.77,-93.1c-0.39,-6.86 -1.2,-13.71 -1.98,-20.54c-3.58,-31.36 -0.79,-62.16 11.43,-91.26c11.29,-26.88 22.44,-54.23 37.45,-79.07c60.51,-100.1 137.49,-186.21 227.26,-260.97c3.3,-2.75 7.23,-4.74 11.62,-7.56c19.38,71.65 50.67,135.52 98.63,191.08"/>
  <path id="svg_2" fill-rule="evenodd" d="m2883.69,1786.2c36.48,-42.41 -13.34,-74.73 -53.85,-62.37c-20.71,6.06 -30.64,12.9 -30.64,12.9c0,0 50.44,-9.65 72.21,11.77c22.19,21.33 12.27,37.7 12.27,37.7l0,0l0.01,0zm254.29,-492.8c55.35,112.74 47.12,205.01 -23.79,301.73c0,0 20.96,18.79 40.72,38.96c19.91,19.9 28.38,67.58 -21.21,149.42c-49.6,81.85 -110.4,75.47 -110.4,75.47c0,0 4.11,38.93 -0.68,74.06c-4.94,35.39 -62.61,169.2 -242.36,159.84c-284.5,-14.73 -604.87,-262.91 -576.26,-570.08c0,0 -49.53,-21.55 -73.92,-113.47c-24.65,-92.08 58.16,-214.5 135.35,-252.2c76.94,-37.86 134.88,34.86 134.88,34.86c0,0 5.8,-24.97 81.89,-88.42c76.35,-63.29 228.58,-116.74 257.41,-126.18c29.23,-9.55 71.57,-65.23 110.41,-90.64c39.09,-25.25 93.86,-24.41 93.86,-24.41c0,0 -35.58,26.39 -50.38,67.94c-14.55,41.7 9.72,88.35 9.72,88.35c0,0 11.02,-34.39 33.7,-53.7c22.68,-19.3 56.03,-26.97 56.03,-26.97c0,0 -17.37,19.82 -10.41,78.9c7.11,58.83 72.1,107.38 155.46,276.53l0,0l-0.02,0.01zm-70.33,398.91l0,0s-24.12,36.75 -29.71,56.89c-5.6,20.15 -8.31,39.62 -8.31,39.62c0,0 21.69,-6.5 37.4,-20.3c15.7,-13.79 29.43,-45.78 24.81,-57.5c-4.37,-11.56 -24.19,-18.71 -24.19,-18.71l0,0zm-646.99,-357.63l0,0s-59.99,-62.7 -96.29,-50.88c-36.05,11.98 -89.2,78.17 -71.76,123.35c17.53,45.6 45.85,67.26 45.85,67.26c0,0 21.7,-28.4 25.44,-43.34c3.49,-15.11 -5.66,-22.97 -6.44,-46.41c-0.54,-23.28 25.22,-26.18 37.32,-16.82c12.19,9.76 65.88,-33.15 65.88,-33.15l0,0l0,-0.01zm552.54,219.63l3.42,10.27s16.93,-20.8 38.89,-32.79c22.13,-12.24 27.51,-2.85 45.89,-0.15c18.21,2.96 32.1,26.86 26.09,37.56c-5.6,10.61 -37.36,65.16 -75.59,135.07c-38.23,69.91 -29.33,124.21 -24.47,160.8c4.87,36.59 -6.39,80.36 -50.48,129.29c-44.09,48.94 -112.49,52.97 -176.16,41.61c-290.2,-51.13 -444.65,-414.58 -228.11,-526.17c53.94,-27.58 132.26,17.69 132.26,17.69l-35.86,-43.33s16.37,-26.09 49.57,-51.5c33.05,-25.16 102.07,-83.51 197.4,-31.11c95.23,51.99 97.17,152.75 97.17,152.75l0,0l-0.02,0.01zm-64.41,331.67l0,0c-55.13,157.45 -360.11,-4.28 -350.58,-150.8c4.75,-72.28 24.62,-108.13 38.16,-124.48c8,-9.67 22.22,-10.83 31.76,-2.67c68.95,59.04 215.97,371.39 280.66,277.95l0,0zm50.04,-174.06c13.33,-15.64 16.46,-35.21 6.29,-43.71c-9.76,-8.6 -28.82,-2.91 -42.16,12.73c-13.33,15.64 -16.21,35.37 -6.29,43.71c9.75,8.59 28.82,2.91 42.16,-12.73l0,0zm-93.5,-60.65c13.33,-15.64 16.46,-35.21 6.29,-43.71c-9.76,-8.6 -28.82,-2.91 -42.16,12.73c-13.33,15.64 -16.21,35.37 -6.29,43.71c9.75,8.59 28.82,2.91 42.16,-12.73l0,0z" class="cls-1"/>
  <path id="svg_3" d="m1889.64,3785.48c29.58,10.25 60.46,14.75 92.01,10.77c49.44,-6.24 87.33,-39.31 100.54,-87.28c8.17,-29.66 9.08,-59.67 3.91,-89.72c-18.34,-106.55 -74.11,-190.29 -158.31,-256.09c-26.28,-20.53 -55.98,-34.98 -88.72,-42.34c-24.67,-5.54 -49.01,-3.05 -72.16,6.61c-29.07,12.13 -43.37,43.48 -34.09,72.22c9.34,28.92 38.9,45.03 70.08,37.15c9.4,-2.37 17.68,-1.86 25.88,2.37c9.2,4.75 18.73,9.17 27.09,15.16c49.46,35.43 82.86,83.37 104.75,139.37c6.27,16.04 8.8,33.71 11.68,50.86c1.45,8.65 0.44,17.87 -0.55,26.72c-1.02,9.07 -2.89,10.85 -11.92,9.96c-11.19,-1.1 -22.51,-2.81 -33.29,-5.92c-41.57,-12.02 -79.66,-31.73 -116.26,-54.45c-78.04,-48.44 -140.63,-112.01 -186.33,-191.79c-21.55,-37.61 -36.24,-77.76 -41.27,-121.1c-3.51,-30.25 0.6,-59.25 14.22,-86.69c13.24,-26.67 32.47,-48.47 55.29,-67.2c24.13,-19.81 50.08,-37.07 78.06,-50.9c33.83,-16.72 68.01,-32.75 102.23,-48.69c30.86,-14.38 60.9,-30.11 88.35,-50.4c25.32,-18.72 46.94,-40.78 61.98,-68.78c1.07,-1.99 2.65,-3.69 3.88,-5.38l-123.05,-28.6c-6.29,4.99 -10.28,9.05 -15.04,11.77c-21.27,12.15 -42.36,24.7 -64.24,35.65c-37.97,18.98 -76.99,35.92 -114.64,55.49c-45.81,23.82 -88.08,53.07 -123.86,90.75c-59.07,62.2 -87.27,135.58 -78.78,221.78c5.2,52.79 20.55,102.84 45.46,149.42c83.48,156.07 210.38,261.51 377.13,319.29l-0.03,-0.01z"/>
  <g id="svg_4">
   <path id="svg_5" d="m1399.81,4092.65c-9.18,-5.87 -28.68,-12.26 -48.36,-15.99c-17.81,-3.09 -26.07,2.69 -33.86,14.87c-12.31,19.24 -17.68,32.4 -14.72,42.05c3.14,6.99 7.25,11.27 22.36,20.94c29.7,19 68.38,29.9 85.96,2.41c14.07,-21.99 6.97,-52.54 -11.39,-64.28l0.01,0z"/>
   <path id="svg_6" d="m645.59,1177.07c-24.04,-16.87 -68.25,-22.84 -95.7,-18.61c-4.13,1.02 -6.76,1.52 -8.23,3.62c-1.84,2.62 -2.17,5.53 -1.71,10.54c3.34,41.5 34.58,83 59,100.13c3.43,2.41 6.05,1.11 8.26,-2.03c4.42,-6.3 9.73,-26.84 24.42,-50.21c8.07,-13.13 13.58,-21.79 17.24,-28.62c3.27,-7.1 2.08,-11.07 -3.27,-14.82l-0.01,0z"/>
   <path id="svg_7" d="m1790.06,4152.42c-36.97,-12.73 -63.8,-1.76 -79.89,44.96c-23.98,69.64 -19.78,128.28 15.37,140.39c33.33,11.48 74.73,-29.97 99.32,-101.37c15.79,-45.84 2.16,-71.24 -34.8,-83.97l0,-0.01z"/>
   <path id="svg_8" d="m1449.58,3968.44c-13.5,-8.63 -25.05,-14.36 -32.96,-13.89c-11.08,0.66 -28.88,21.37 -45.46,47.29c-5.02,7.85 -6.13,14.34 2.51,19.87c35.1,22.45 93.9,26.86 110.23,1.33c11.55,-18.07 -8.94,-38.37 -34.32,-54.6z"/>
   <path id="svg_9" d="m2163.38,431.96c6.01,3.84 12.46,4.39 18.22,4.05c48.62,-2.91 82.37,-29.22 78.44,-94.83c-4.77,-79.57 -49.75,-112.37 -95.82,-109.61c-4.48,0.27 -10.79,2.05 -14.46,5.07c-10.99,9.53 -12.71,45.12 -9.39,100.5c3.46,57.7 10.33,86.71 23.02,94.82l-0.01,0z"/>
   <path id="svg_10" d="m2610.82,442.54c38.68,5.7 62.46,-10.59 69.46,-58.09c10.94,-74.25 -6.68,-130.56 -41.56,-135.7c-36.78,-5.42 -67.49,44.72 -78.22,117.58c-7.13,48.42 11.64,70.51 50.32,76.21z"/>
   <path id="svg_11" d="m2318.3,0c-1280.36,0 -2318.3,1037.94 -2318.3,2318.3s1037.94,2318.3 2318.3,2318.3s2318.3,-1037.94 2318.3,-2318.3s-1037.94,-2318.3 -2318.3,-2318.3zm1533.38,744.22c17.65,15.9 52.96,50.39 88.97,86.9c39.15,39.71 78.09,80.52 99.27,104.65c6.42,7.17 6.23,10.96 3.91,13.25c-4.32,4.25 -44.66,22.43 -67.48,27.83c-4.01,1.25 -7.7,-0.51 -10.85,-3.7c-3.6,-3.65 -6.2,-8.28 -11.3,-16.77c-10.63,-17.42 -26.78,-41.1 -53.79,-68.49c-14.85,-15.06 -24.94,-21.31 -35.11,-22.99c-12.39,-1.28 -30.6,9.47 -43.54,22.23c-6.97,6.87 -5.91,13.93 2.19,22.14c15.75,15.97 41.76,31.73 67.42,57.74c18.45,18.71 29.63,34.69 23.65,40.59c-6.97,6.87 -42.19,23.6 -59.54,29.91c-5.78,2.1 -8.58,1.26 -12.18,-2.39c-6.3,-6.39 -20.79,-31.71 -41.49,-52.7c-29.7,-30.12 -49.02,-31.78 -65.61,-15.42c-23.23,22.91 -20.68,34.8 2.27,58.07c40.05,40.62 77.37,60.53 99.54,71.07c6.16,2.93 8.51,3.31 11.21,6.05s3.51,5.55 2.53,9.21c-5.43,17.06 -34.63,61.15 -47.24,73.59c-5.31,5.24 -13.46,4.27 -22.34,-4.07c-30.25,-28.68 -65.23,-63.5 -98.54,-97.27c-39.6,-40.16 -77.08,-78.83 -103.08,-107.19c-9.57,-10.37 -13.64,-17.15 -6.13,-25.47c13.7,-15.31 29.52,-31.81 46.45,-48.5c59.08,-58.26 135.75,-121.26 209.71,-161.78c6.78,-3.08 14.48,-2.58 21.11,3.49l-0.01,0.02zm-431.77,-305.23c6.03,-3.26 13.16,-3.55 21.14,0.65c10.92,6.73 23.44,14.52 35.7,22.71c11.73,7.83 23.2,16.04 32,22.48c5.07,3.95 8.04,8.73 9.46,15.84c6.85,37.08 12.45,117.59 5.1,235.98c0.05,3.39 1.13,5.24 3.26,6.66c3.2,2.13 7.42,1.59 9.75,-1.9c54.6,-81.81 67.75,-162.7 76.55,-175.89c2.85,-4.27 8.65,-4.88 14.77,-1.35c11.71,6.7 28.5,17.34 45.03,28.37c13.86,9.25 27.46,18.89 37.08,26.43c7.2,5.37 10.45,10.9 7.91,18.17c-16.54,45.56 -53.92,111.97 -94.03,172.06c-28.46,42.65 -59.08,82.74 -84.07,108.65c-6.77,6.69 -13.64,6.59 -24.56,-0.14c-11.71,-6.7 -30.37,-19.15 -47.43,-30.54c-11.73,-7.83 -22.39,-14.94 -29.34,-20.7c-10.95,-8.99 -13.12,-12.68 -10.35,-22.6c14.52,-77.18 16.43,-149.32 9.51,-210.54c-0.87,-5.62 -2.5,-8.95 -5.17,-10.73c-4.8,-3.2 -9.78,-0.36 -12.88,4.29c-45.61,63.71 -76.28,157.01 -79.9,162.44c-3.88,5.82 -9.18,4.52 -15.84,0.64c-11.18,-6.34 -28.5,-17.34 -45.03,-28.37c-15.99,-10.67 -31.2,-21.38 -41.87,-29.63c-7.74,-5.73 -10.98,-11.25 -8.43,-17.39c18.4,-44.88 46.77,-94.32 76.27,-138.52c45.03,-67.46 93.37,-123.74 115.38,-137.08l-0.01,0.01zm-593.41,114.94c7.87,-47.87 24.43,-102.41 43.27,-152.1c28.75,-75.84 63.26,-141.53 81.71,-159.46c5.15,-4.53 12.03,-6.41 20.75,-4.09c12.15,4.11 26.1,8.9 39.89,14.13c13.18,5 26.21,10.43 36.23,14.73c5.83,2.71 9.8,6.71 12.77,13.32c14.99,34.6 38.49,111.81 57.88,228.84c0.81,3.3 2.27,4.85 4.67,5.76c3.6,1.36 7.58,-0.12 9.07,-4.04c34.87,-91.97 29.55,-173.75 35.17,-188.57c1.82,-4.79 7.34,-6.69 14.09,-4.62c12.92,3.9 31.66,10.51 50.24,17.55c15.58,5.91 31,12.25 42.06,17.44c8.23,3.62 12.63,8.28 11.78,15.93c-5.9,48.11 -27.45,121.21 -53.06,188.77c-18.18,47.95 -39.02,93.89 -57.58,124.74c-5.1,8.04 -11.82,9.48 -23.97,5.37c-12.92,-3.9 -33.89,-11.85 -53.07,-19.12c-13.18,-5 -25.17,-9.54 -33.23,-13.6c-12.69,-6.31 -15.63,-9.41 -15.15,-19.7c-3.15,-78.47 -17.46,-149.2 -37.93,-207.31c-2.11,-5.29 -4.44,-8.17 -7.44,-9.3c-5.39,-2.05 -9.61,1.84 -11.59,7.07c-30.16,72.32 -39.14,170.12 -41.45,176.22c-2.48,6.54 -7.93,6.46 -15.29,4.17c-12.32,-3.67 -31.66,-10.51 -50.24,-17.55c-17.98,-6.82 -35.2,-13.84 -47.45,-19.49c-8.82,-3.84 -13.23,-8.51 -12.11,-15.06l-0.02,-0.03zm-395.47,-188.3c17.46,-118.52 97.67,-218.85 220.06,-200.82c123.02,18.12 170.26,137.22 152.8,255.75c-11.35,77.02 -64.84,132.28 -205.61,111.54c-142.67,-21.02 -178.59,-89.45 -167.25,-166.47zm-408.41,-193.3c2.11,-7.6 7.7,-10.73 14.07,-11.58c21.06,-2.19 47.9,-4.27 71.57,-5.69c159.31,-9.54 270,26.79 280.04,194.31c5.71,95.39 -35.28,150.62 -213.79,161.31c-32.63,1.95 -104.96,5.82 -117.78,6.12c-10.9,0.19 -16.13,-1.37 -19.61,-5.83c-9.77,-12.96 -18.89,-47.43 -24.69,-144.22c-5.83,-97.25 0.79,-158.36 10.19,-194.41l0,-0.01zm-494.37,122.15c1.41,-6.71 5.8,-12.33 14.17,-15.7c12.19,-3.98 26.24,-8.49 40.41,-12.55c13.56,-3.88 27.24,-7.32 37.84,-9.87c6.29,-1.32 11.86,-0.49 18.2,3.03c32.71,18.75 97.75,66.55 183.3,148.72c2.62,2.16 4.72,2.53 7.19,1.82c3.7,-1.06 6.01,-4.63 4.85,-8.66c-27.09,-94.55 -80.29,-156.9 -84.66,-172.13c-1.41,-4.93 1.87,-9.75 8.52,-12.14c12.68,-4.6 31.66,-10.53 50.76,-16c16.02,-4.59 32.17,-8.73 44.13,-11.19c8.75,-2.02 15.07,-0.92 18.97,5.72c24.06,42.08 50.53,113.54 70.43,183c14.12,49.29 24.91,98.57 28.51,134.4c0.72,9.49 -3.8,14.67 -15.99,18.65c-12.68,4.6 -34.25,10.78 -53.97,16.43c-13.56,3.88 -25.88,7.42 -34.76,8.99c-13.94,2.54 -18.15,1.81 -23.93,-6.72c-49.48,-60.98 -103.27,-109.1 -154.44,-143.41c-4.85,-2.97 -8.45,-3.88 -11.53,-3c-5.55,1.59 -6.6,7.22 -5.06,12.6c19.11,75.99 70.43,159.72 72.23,166c1.93,6.72 -2.49,9.93 -9.76,12.49c-12.07,4.43 -31.66,10.52 -50.76,16c-18.48,5.3 -36.48,9.97 -49.68,12.78c-9.37,2.2 -15.69,1.1 -18.72,-4.82c-22.34,-43.06 -41.7,-96.67 -56.34,-147.76c-22.34,-77.97 -34,-151.25 -29.95,-176.66l0.04,-0.02zm-359.77,164.73c20.33,-12.3 63.55,-36.13 108.91,-60.04c49.33,-26 99.66,-51.48 128.88,-64.77c8.72,-4.07 12.29,-2.79 13.82,0.1c2.83,5.36 8.56,49.23 7.14,72.65c0.04,4.2 -2.71,7.23 -6.68,9.32c-4.54,2.39 -9.72,3.54 -19.32,5.97c-19.75,5.14 -47.09,13.76 -81.11,31.69c-18.71,9.86 -27.61,17.72 -32.16,26.96c-4.81,11.49 0.22,32.03 8.7,48.11c4.56,8.66 11.62,9.68 21.83,4.3c19.85,-10.46 42.45,-30.81 74.77,-47.84c23.25,-12.25 41.78,-18.33 45.69,-10.91c4.57,8.66 10.4,47.21 11.42,65.65c0.34,6.14 -1.28,8.58 -5.81,10.97c-7.94,4.18 -36.37,10.74 -62.45,24.48c-37.42,19.73 -44.6,37.73 -33.73,58.35c15.22,28.87 27.33,29.86 56.25,14.62c50.46,-26.6 80.32,-56.56 96.82,-74.75c4.58,-5.05 5.63,-7.18 9.03,-8.98c3.4,-1.79 6.32,-1.75 9.54,0.24c14.76,10.14 48.53,50.83 56.79,66.5c3.48,6.6 0.2,14.12 -10.36,20.21c-36.2,20.66 -79.65,44.09 -121.61,66.21c-49.9,26.3 -97.74,50.99 -132.42,67.69c-12.69,6.16 -20.37,8.1 -26.15,-1.5c-10.7,-17.55 -21.92,-37.45 -33,-58.49c-38.69,-73.4 -76.83,-165.01 -94.24,-247.52c-0.99,-7.38 1.72,-14.61 9.44,-19.2l0.01,-0.02zm-499.85,388.75c10.02,-9.97 28.55,-26.75 46.91,-42.75c15.46,-13.48 30.74,-26.18 41.98,-34.75c9.31,-6.88 16.46,-9.4 25.23,-7.15c35.42,7.46 84.89,26.17 133.84,47.2c3.11,1.62 5.96,0.99 8.38,-1.12c2.42,-2.11 2.95,-4.42 2.07,-7.37c-13.81,-52.9 -24.06,-102.71 -28.26,-136.77c-0.91,-7.87 2,-17.21 8.16,-23.81c11.47,-11.23 24.86,-24.15 39.36,-36.79c13.04,-11.37 26.7,-22.04 40.84,-33.13c8.34,-6.04 16.59,-8.28 22.33,-4.63c50.29,30.37 97.53,68.96 138.89,116.39c31.86,36.54 61.38,78.21 89.19,125.71c3.94,6.46 1.55,13.49 -3.94,18.89c-10.98,10.81 -33.56,31.73 -55.3,50.69c-16.91,14.74 -32.5,27.1 -42.78,34.82c-6.89,4.77 -10.84,5.12 -13.9,1.61c-11.03,-12.65 -28.66,-82.62 -81.35,-143.05c-14.09,-16.16 -29.76,-32.19 -47.28,-43.5c-2.02,-1.34 -4.08,-0.77 -6.01,0.91c-1.93,1.69 -2.46,4 -1.72,5.83c13.94,54.02 29.48,112.82 35.3,170.21c0.95,5.97 -1.86,11.52 -5.73,14.89c-4.35,3.79 -10.23,5.83 -16.5,4.49c-57.82,-12.67 -125.47,-41.5 -161.75,-58.73c-2.5,-0.91 -5.35,-0.28 -7.28,1.4c-1.93,1.68 -2.46,4 -1.42,6.18c11.45,20.94 27.33,41.11 43.88,60.08c53,60.78 115.31,82.52 123.89,92.36c2.76,3.16 0.6,7.52 -4.58,13.27c-10.81,10.04 -24.99,23.03 -42.39,38.19c-15.94,13.9 -32.85,28.64 -47.96,40.58c-5.14,3.86 -10.36,4.7 -14.39,2.03c-39.81,-27.13 -77.86,-61.99 -113.39,-102.75c-38.29,-43.92 -73.72,-95.28 -107.25,-153.25c-4.24,-6.82 -0.94,-12.78 2.92,-16.16l0.01,-0.02zm-162.3,1437.45l-114.43,83.14c-4.4,3.2 -6.25,8.87 -4.56,14.05l43.71,134.52c3.76,11.57 -9.49,21.2 -19.33,14.05l-114.43,-83.14c-4.4,-3.2 -10.37,-3.2 -14.77,0l-114.43,83.14c-9.85,7.15 -23.09,-2.47 -19.33,-14.05l43.71,-134.52c1.68,-5.18 -0.16,-10.85 -4.56,-14.05l-114.43,-83.14c-9.85,-7.15 -4.79,-22.73 7.38,-22.73l141.44,0c5.44,0 10.27,-3.5 11.95,-8.68l43.71,-134.52c3.76,-11.57 20.14,-11.57 23.9,0l43.71,134.52c1.68,5.18 6.51,8.68 11.95,8.68l141.44,0c12.17,0 17.23,15.57 7.38,22.73l-0.01,0zm-50.98,-1165.9c1.77,-6.59 3.21,-11.06 5.78,-14.73c2.95,-4.2 6.3,-6.54 11.52,-9.93c116.51,-67.01 226.21,-45.62 327.7,25.61c16.41,11.51 32.84,24.61 49.31,40.09c7.28,6.67 5.52,14.05 -0.72,24.56c-7.71,12.6 -17.63,27.56 -27.58,41.73c-12.15,17.31 -24.31,33.83 -32.81,44.31c-5.55,6.29 -10.42,8.35 -15.38,4.87c-8.39,-5.89 -20.05,-26.6 -43.33,-42.94c-15.26,-10.71 -29.11,-4.77 -45.31,18.31c-21.72,30.95 -31.73,63.87 -9.98,79.13c17.17,12.05 35.34,16.19 45.26,23.15c4.57,2.42 5.38,6.13 1.36,13.48c-7.34,12.08 -18,28.09 -29.78,44.87c-9.21,13.12 -16.94,24.13 -25.79,35.93c-7.38,9.7 -12.59,13.88 -20.19,10.1c-18.64,-9.95 -37.3,-20.7 -55.61,-33.55c-89.28,-62.66 -166.76,-163.24 -134.46,-305.01l0.01,0.02zm1053.18,3119.6c-37.42,58.51 -114.25,52.54 -258.42,-39.68c-26.46,-16.92 -54.29,-35.27 -78.37,-52.34c-7.31,-5.23 -13.83,-10.5 -9.88,-19.05c21.44,-46.6 45.9,-89.61 71.27,-129.28c37.17,-58.12 76.51,-106.55 116.63,-147.85c5.1,-5.59 12.8,-4.54 21.15,0.24c19.65,10.91 59.28,34.6 97.62,59.12c70.2,44.9 113.83,77.79 127.98,113.95c6.93,17.71 5.66,35.16 -5.14,52.05c-17.83,27.88 -49.29,35.43 -84.21,34.12c-6.33,0.38 -10.28,0.62 -11.79,2.97c-1,1.57 -0.64,4.57 1.59,8.21c28.59,49.28 33.43,83.35 11.58,117.52l-0.01,0.02zm439.52,31.33c-39.01,113.27 -135.59,196.86 -253.16,156.36c-116.96,-40.29 -142.19,-165.82 -103.18,-279.1c25.35,-73.6 88.72,-117.85 225.08,-70.88c134.54,46.34 156.62,120.01 131.27,193.62l-0.01,0zm392.6,94.42c-9.77,106.77 -56.06,169.47 -198.4,156.45c-123.83,-11.33 -178.26,-70.61 -168.07,-182.02c9.98,-109.09 34.31,-163.97 43.2,-183.75c2.42,-5.39 8.42,-7.65 12.93,-7.71c11.57,0.12 32.64,2.05 54.98,4.1c19.15,1.75 37.66,3.45 49.06,5.42c6.34,1.05 10.51,4.71 9.36,10.22c-3.74,19.79 -29.26,101.71 -35.59,170.88c-5.86,64.06 10.52,88.97 45.63,92.18c36.38,3.33 53.02,-16.68 58.88,-80.74c7.18,-78.45 2.66,-155.63 1.85,-174.9c-0.09,-6.09 1.53,-9.69 9.87,-9.4c10.3,0 26.94,1.06 44.17,2.64c20.43,1.87 40.85,3.74 53.53,5.83c6.3,1.51 10.6,3.78 12.68,9.12c7.36,17.99 15.93,72.14 5.9,181.69l0.02,-0.01zm266.02,145.22c-125.59,18.23 -203.87,-30.23 -218.2,-128.95c-16.67,-114.87 40.64,-219.75 188.44,-241.2c95.78,-13.9 140.1,19.23 146.39,62.59c1.47,10.15 -3.8,18.45 -11.74,26.2c-20.93,20.94 -73.03,50.17 -92.06,52.93c-6.34,0.92 -10.55,-1.29 -11.29,-6.37c-0.6,-4.15 -0.71,-9.32 -1.38,-13.93c-2.68,-18.45 -15.67,-41.06 -43.58,-37.01c-37.42,5.43 -58.71,46.2 -48.66,115.4c10.65,73.35 41.9,92.36 83.77,86.29c32.35,-4.7 46.9,-20.47 43.48,-43.99c-2.54,-17.53 -13.46,-25.84 -35.63,-26.86c-6.54,-0.46 -9.55,-3.32 -10.15,-7.48c-0.87,-6 0.7,-8.58 14.88,-13.46c35.18,-16.41 99.34,-47.39 113.29,-49.42c6.34,-0.92 11.89,1.57 14.16,8.31c7.66,30.45 16.58,60.71 21.4,93.93c8.77,60.43 -44.66,107.28 -153.13,123.03l0.01,-0.01zm546.62,-172.23c-38.3,16.45 -84.11,34.84 -128.29,52.09c-52.54,20.51 -102.87,39.66 -139.2,52.34c-13.31,4.69 -21.15,5.75 -25.81,-4.43c-8.65,-18.64 -17.56,-39.68 -26.2,-61.83c-30.18,-77.29 -57.76,-172.61 -65.76,-256.56c-0.15,-7.45 3.35,-14.32 11.54,-18.02c21.58,-9.93 67.22,-28.75 114.98,-47.39c51.95,-20.28 104.83,-39.92 135.36,-49.84c9.13,-3.06 12.53,-1.39 13.72,1.65c2.2,5.64 2.96,49.88 -1.09,72.99c-0.43,4.17 -3.51,6.87 -7.69,8.51c-4.78,1.86 -10.06,2.43 -19.87,3.75c-20.21,2.88 -48.34,8.36 -84.17,22.35c-19.7,7.69 -29.43,14.49 -34.99,23.17c-6.07,10.88 -3.39,31.85 3.22,48.78c3.56,9.12 10.46,10.93 21.21,6.73c20.9,-8.16 45.65,-25.83 79.68,-39.12c24.48,-9.56 43.58,-13.51 46.63,-5.7c3.56,9.12 5.01,48.09 3.95,66.51c-0.35,6.14 -2.23,8.38 -7.01,10.24c-8.36,3.26 -37.34,6.57 -64.81,17.29c-39.41,15.38 -48.56,32.47 -40.08,54.18c11.87,30.4 23.79,32.75 54.25,20.86c53.14,-20.75 86.18,-47.16 104.62,-63.36c5.12,-4.5 6.41,-6.5 9.99,-7.9c3.58,-1.4 6.48,-1.03 9.46,1.31c13.53,11.73 42.49,55.97 48.94,72.47c2.71,6.95 -1.39,14.05 -12.57,18.92l-0.01,0.01zm336.14,-210.12c-32.07,22.38 -77.23,52.87 -121.57,82.26c-44.34,29.39 -88.41,58.04 -119.38,77.45c-14.15,8.82 -21.24,6.25 -27.42,-3.08c-33.48,-50.51 -27.17,-126.84 -12.17,-201.65c13.49,-63.19 18.18,-90.91 13.8,-97.51c-2.06,-3.11 -6.02,-3.28 -11.36,0.26c-50.22,33.29 -73.32,71.53 -87.21,80.73c-4.81,3.19 -8.51,3.4 -12.97,1.32c-21.42,-13.76 -52.84,-46.07 -62.37,-60.45c-4.12,-6.22 -1.12,-12.12 10.91,-20.66c29.96,-22.09 75.92,-53.68 121.87,-84.13c45.41,-30.1 91.62,-60.16 122.29,-77.7c12.01,-7.4 16.74,-6.06 21.12,0.54c21.12,31.86 13.07,117.17 -0.41,195.45c-12.44,63.61 -14.32,96.73 -6.08,109.17c3.86,5.83 10.2,6.1 19.81,-0.27c57.7,-38.24 76.11,-80.09 91.6,-90.35c3.74,-2.48 8.51,-3.4 12.15,-0.23c19.8,15.96 38.46,37.14 57.56,63.63c5.15,7.77 3.97,15.27 -10.2,25.22l0.03,0zm-1171.13,-84.47c-952.67,0 -1724.96,-772.29 -1724.96,-1724.96s772.29,-1724.96 1724.96,-1724.96s1724.96,772.29 1724.96,1724.96s-772.29,1724.96 -1724.96,1724.96zm1652.99,-2736.92c38.97,57.21 81.04,75.09 91.51,90.45c2.53,3.71 3.51,8.47 0.38,12.15c-15.7,20 -36.65,38.93 -62.9,58.36c-7.71,5.25 -15.22,4.16 -25.34,-9.88c-22.78,-31.79 -53.84,-76.55 -83.79,-120.52c-29.95,-43.97 -59.16,-87.67 -78.95,-118.39c-9,-14.04 -6.51,-21.16 2.73,-27.45c50.08,-34.12 126.49,-28.77 201.49,-14.71c63.35,12.69 91.13,17.03 97.68,12.57c3.08,-2.1 3.2,-6.06 -0.4,-11.36c-33.92,-49.79 -72.45,-72.41 -81.83,-86.18c-3.25,-4.77 -3.51,-8.47 -1.49,-12.95c13.49,-21.6 45.4,-53.42 59.65,-63.13c6.16,-4.2 12.11,-1.27 20.8,10.65c22.47,29.67 54.63,75.24 85.67,120.79c30.67,45.03 61.32,90.85 79.24,121.29c7.55,11.92 6.28,16.66 -0.27,21.13c-31.59,21.52 -117,14.55 -195.44,2.06c-63.76,-11.63 -96.91,-13.09 -109.24,-4.7c-5.78,3.94 -5.97,10.27 0.52,19.81l-0.02,0.01zm588.21,979.07l-115.01,83.56c-4.06,2.95 -5.76,8.17 -4.21,12.95l43.93,135.2c3.76,11.57 -9.49,21.2 -19.33,14.05l-115.01,-83.56c-4.06,-2.95 -9.55,-2.95 -13.61,0l-115.01,83.56c-9.85,7.15 -23.09,-2.47 -19.33,-14.05l43.93,-135.2c1.55,-4.77 -0.15,-10 -4.21,-12.95l-115.01,-83.56c-9.85,-7.15 -4.79,-22.73 7.38,-22.73l142.16,0c5.02,0 9.46,-3.23 11.01,-8l43.93,-135.2c3.76,-11.57 20.14,-11.57 23.9,0l43.93,135.2c1.55,4.77 6,8 11.01,8l142.16,0c12.17,0 17.23,15.57 7.38,22.73l0.01,0z"/>
  </g>
 </g>
</svg>